# xmcd
#
# Track frame offsets: 
#        150
#        11628
#        23231
#        35470
#        46102
#        55618
#        67703
#        79097
#        89671
#        99312
#        112080
#        123939
#        134126
#        143837
#        156005
#
# Disc length: 2208 seconds
#
# Revision: 0
# Processed by: cddbd v1.5.2PL0 Copyright (c) Steve Scherf et al.
# Submitted via: ExactAudioCopy v0.99pb4
#
DISCID=c0089e0f
DTITLE=The Impressions - For Your Precious Love
DYEAR=2000
DGENRE=Soul
TTITLE0=Come Back My Love
TTITLE1=Love Me
TTITLE2=The Gift of Love
TTITLE3=Lovely One
TTITLE4=New Love
TTITLE5=Say That You Love Me
TTITLE6=Senorita, I Love You
TTITLE7=A Long Time Ago
TTITLE8=Believe In Me
TTITLE9=Don't Drive Me Away
TTITLE10=Let Me Know
TTITLE11=Lover's Lane
TTITLE12=Young Lover
TTITLE13=For Your Precious Love
TTITLE14=Sweet Was The Wine
EXTD=
EXTT0=
EXTT1=
EXTT2=
EXTT3=
EXTT4=
EXTT5=
EXTT6=
EXTT7=
EXTT8=
EXTT9=
EXTT10=
EXTT11=
EXTT12=
EXTT13=
EXTT14=
PLAYORDER=
